<svg width="16" height="14" viewBox="0 0 16 14" fill="none" xmlns="http://www.w3.org/2000/svg">
<path d="M2.33324 4.33314C2.33338 3.70108 2.49689 3.07979 2.80792 2.52956C3.11895 1.97933 3.56694 1.51884 4.1084 1.19278C4.64987 0.866726 5.26642 0.686173 5.89824 0.668647C6.53005 0.65112 7.15567 0.797214 7.71437 1.09275C8.27308 1.38829 8.7459 1.82323 9.08696 2.35538C9.42802 2.88752 9.62572 3.49879 9.6609 4.12987C9.69607 4.76095 9.56751 5.3904 9.2877 5.95714C9.00788 6.52389 8.58632 7.00868 8.06391 7.36447C9.18891 7.77709 10.1647 8.51695 10.8657 9.48881C11.5666 10.4607 11.9607 11.6201 11.9972 12.8178C11.9957 12.9469 11.9443 13.0705 11.8538 13.1626C11.7633 13.2548 11.6407 13.3084 11.5116 13.3122C11.3825 13.3161 11.2569 13.2699 11.1611 13.1834C11.0652 13.0969 11.0065 12.9766 10.9972 12.8478C10.9575 11.5488 10.4136 10.3162 9.48069 9.41141C8.54778 8.50658 7.29921 8.00054 5.99958 8.00054C4.69994 8.00054 3.45137 8.50658 2.51846 9.41141C1.58555 10.3162 1.04161 11.5488 1.00191 12.8478C0.995236 12.9784 0.937696 13.1011 0.841617 13.1898C0.745538 13.2784 0.618563 13.3259 0.487893 13.3221C0.357224 13.3182 0.233252 13.2634 0.142539 13.1692C0.0518249 13.0751 0.00158354 12.9492 0.00257796 12.8185C0.0389455 11.6206 0.432983 10.4611 1.13397 9.48908C1.83495 8.51709 2.81081 7.77714 3.93591 7.36447C3.44196 7.02806 3.03773 6.57602 2.7584 6.04769C2.47907 5.51936 2.33312 4.93076 2.33324 4.33314ZM5.99991 1.66647C5.29267 1.66647 4.61439 1.94742 4.11429 2.44752C3.6142 2.94762 3.33324 3.62589 3.33324 4.33314C3.33324 5.04038 3.6142 5.71866 4.11429 6.21876C4.61439 6.71885 5.29267 6.9998 5.99991 6.9998C6.70715 6.9998 7.38543 6.71885 7.88553 6.21876C8.38563 5.71866 8.66658 5.04038 8.66658 4.33314C8.66658 3.62589 8.38563 2.94762 7.88553 2.44752C7.38543 1.94742 6.70715 1.66647 5.99991 1.66647ZM11.5266 4.33314C11.4284 4.33314 11.3319 4.33981 11.2372 4.35314C11.1712 4.36497 11.1033 4.36337 11.0379 4.34844C10.9724 4.3335 10.9106 4.30553 10.8562 4.2662C10.8018 4.22686 10.7559 4.17697 10.7211 4.1195C10.6864 4.06203 10.6636 3.99815 10.6541 3.93168C10.6446 3.86521 10.6486 3.7975 10.6659 3.73261C10.6831 3.66771 10.7132 3.60695 10.7545 3.55396C10.7957 3.50096 10.8472 3.45681 10.9058 3.42414C10.9645 3.39147 11.0291 3.37095 11.0959 3.36381C11.759 3.26794 12.4351 3.39527 13.0178 3.72575C13.6006 4.05624 14.0569 4.57112 14.315 5.18936C14.5731 5.8076 14.6182 6.4941 14.4434 7.14083C14.2686 7.78756 13.8837 8.3578 13.3492 8.7618C14.1348 9.11357 14.8019 9.68514 15.2698 10.4076C15.7378 11.13 15.9867 11.9724 15.9866 12.8331C15.9866 12.9657 15.9339 13.0929 15.8401 13.1867C15.7464 13.2805 15.6192 13.3331 15.4866 13.3331C15.354 13.3331 15.2268 13.2805 15.133 13.1867C15.0393 13.0929 14.9866 12.9657 14.9866 12.8331C14.9868 12.0892 14.7472 11.3649 14.3034 10.7678C13.8596 10.1708 13.2351 9.73263 12.5226 9.51847L12.1666 9.41181V8.29447L12.4399 8.15514C12.8451 7.9499 13.1693 7.61411 13.3601 7.20197C13.551 6.78983 13.5974 6.32539 13.4918 5.88364C13.3862 5.4419 13.1349 5.04861 12.7783 4.76729C12.4217 4.48597 11.9808 4.33302 11.5266 4.33314Z" fill="#707070"/>
</svg>
