<svg width="506" height="506" viewBox="0 0 506 506" fill="none" xmlns="http://www.w3.org/2000/svg">
<path d="M304.338 362.806H223.818C210.007 362.806 198.709 351.553 198.709 337.798V266.94C198.709 253.185 210.007 241.931 223.818 241.931H304.339C318.149 241.931 329.447 253.185 329.447 266.94V337.798C329.447 351.552 318.148 362.806 304.338 362.806Z" fill="white"/>
<path d="M304.339 241.93C318.149 241.93 329.447 253.184 329.447 266.939V337.797C329.447 351.552 318.149 362.805 304.339 362.805H223.819C210.008 362.805 198.71 351.552 198.71 337.797V266.939C198.71 253.184 210.008 241.93 223.819 241.93H304.339ZM304.339 237.977H223.819C219.908 237.977 216.106 238.748 212.518 240.266C209.059 241.729 205.951 243.82 203.28 246.482C200.608 249.143 198.508 252.239 197.039 255.683C195.515 259.256 194.741 263.043 194.741 266.939V337.797C194.741 341.692 195.515 345.479 197.039 349.053C198.508 352.497 200.607 355.593 203.28 358.254C205.951 360.915 209.06 363.006 212.518 364.47C216.106 365.988 219.908 366.758 223.819 366.758H304.34C308.251 366.758 312.053 365.988 315.641 364.47C319.099 363.006 322.207 360.916 324.879 358.254C327.55 355.593 329.65 352.496 331.12 349.053C332.644 345.479 333.417 341.692 333.417 337.797V266.939C333.417 263.043 332.644 259.256 331.12 255.683C329.65 252.238 327.551 249.143 324.879 246.482C322.207 243.821 319.098 241.729 315.641 240.266C312.053 238.748 308.25 237.977 304.339 237.977Z" fill="#317F8B"/>
<path d="M327.647 318.991C315.11 320.455 302.614 320.815 302.614 320.815C302.614 320.815 296.251 289.21 294.486 264.427C293.187 246.064 294.409 231.451 302.614 236.217C306.389 238.41 310.736 242.54 315.27 247.779C332.273 267.437 351.808 302.735 352.88 310.059C353.572 314.77 340.592 317.471 327.647 318.991Z" fill="white"/>
<path d="M300.935 322.921L300.593 321.221C300.554 321.027 296.663 301.607 294.144 281.499C292.659 269.643 291.933 259.855 291.985 252.407C292.056 242.233 293.54 236.463 296.652 234.248C298.019 233.276 300.343 232.521 303.654 234.445C314.57 240.787 328.423 260.992 335.709 272.471C340.569 280.129 345.222 288.178 348.811 295.135C351.339 300.037 354.452 306.553 354.923 309.762C355.06 310.694 354.968 312.107 353.755 313.545C352.001 315.626 348.357 317.254 342.287 318.668C337.837 319.705 332.118 320.597 325.29 321.32C313.729 322.543 302.783 322.868 302.675 322.871L300.935 322.921ZM299.772 237.362C299.374 237.362 299.165 237.511 299.051 237.591C297.705 238.549 293.67 244.505 298.235 280.969C300.304 297.483 303.305 313.538 304.303 318.699C307.823 318.558 316.175 318.152 324.877 317.231C345.079 315.09 349.592 312.092 350.596 310.903C350.873 310.574 350.851 310.422 350.841 310.356C350.254 306.364 342.633 291.069 332.223 274.667C320.165 255.672 308.996 242.304 301.576 237.993C300.734 237.504 300.162 237.362 299.772 237.362Z" fill="#317F8B"/>
<path d="M238.822 235.051L236.285 254.17L234.841 265.039L231.762 288.246C231.762 288.246 226.136 292.058 216.776 295.078C213.279 296.208 209.252 297.219 204.807 297.882C197.54 298.971 189.139 299.11 180.037 297.255C156.619 292.478 142.565 275.153 136.481 266.442C124.721 249.628 122.911 245.083 126.18 238.005C128.676 232.58 132.952 231.59 132.952 231.59C132.952 231.59 132.741 227.255 136.186 225.713C146.51 221.095 159.81 233.428 159.81 233.428C159.81 233.428 160.306 220.166 167.432 223.228C172.342 225.338 173.456 239.778 173.456 239.778C173.456 239.778 180.046 248.212 190.516 249.331C195.987 249.916 203.558 248.335 211.077 246.039C211.165 246.013 211.253 245.988 211.34 245.957C215.348 244.725 219.329 243.296 222.974 241.883C224.61 241.252 226.177 240.619 227.646 240.014C234.216 237.301 238.822 235.051 238.822 235.051Z" fill="white"/>
<path opacity="0.35" d="M136.477 266.442C142.567 275.15 156.619 292.479 180.035 297.255C194.702 300.243 207.555 298.048 216.777 295.074C226.137 292.058 231.762 288.244 231.762 288.244L232.175 269.93C232.175 269.93 225.798 263.809 219.858 266.305C212.721 269.304 215.008 279.496 204.815 282.331C176.48 290.212 153.461 275.813 146.054 269.492C135.779 260.724 133.098 255.201 131.652 252.922C128.66 248.206 126.349 244.501 125.046 241.183C123.718 246.796 126.553 252.247 136.477 266.442Z" fill="#317F8B"/>
<path d="M194.165 300.732C189.276 300.732 184.407 300.243 179.622 299.266C169.095 297.119 159.274 292.286 150.433 284.897C144.743 280.142 139.478 274.327 134.786 267.616C129.06 259.425 125.42 253.798 123.76 249.278C122.169 244.947 122.327 241.432 124.302 237.145C126.247 232.923 129.187 230.982 130.964 230.149C131.254 227.979 132.385 225.163 135.34 223.842C143.735 220.085 153.423 225.898 158.219 229.476C158.265 229.234 158.317 228.985 158.373 228.733C159.168 225.182 160.54 222.772 162.451 221.572C163.624 220.834 165.582 220.196 168.253 221.345C170.962 222.51 172.938 225.942 174.297 231.837C174.992 234.857 175.326 237.692 175.452 238.948C176.91 240.592 182.61 246.42 190.738 247.288C205.575 248.872 237.59 233.363 237.912 233.206C238.595 232.872 239.407 232.94 240.024 233.383C240.641 233.825 240.964 234.57 240.865 235.32L233.81 288.512C233.733 289.093 233.412 289.612 232.925 289.941C232.689 290.101 227.031 293.9 217.623 296.961C212.112 298.755 206.442 299.923 200.773 300.434C198.57 300.633 196.365 300.732 194.165 300.732ZM133.429 233.585C133.162 233.657 130.013 234.597 128.051 238.857C125.407 244.595 126.057 247.939 138.171 265.267C149.56 281.557 164.179 291.922 180.448 295.24C195.272 298.264 208.148 295.72 216.339 293.055C223.284 290.795 228.072 288.099 229.843 287.023L236.279 238.504C232.917 240.033 227.418 242.435 221.246 244.739C207.507 249.867 197.093 252.098 190.298 251.373C179.086 250.177 172.12 241.413 171.828 241.04C171.58 240.722 171.43 240.338 171.4 239.936C171.397 239.902 171.117 236.395 170.264 232.711C168.828 226.5 167.109 225.327 166.617 225.116C165.385 224.586 164.853 224.919 164.653 225.045C162.919 226.131 161.98 230.646 161.867 233.505C161.835 234.307 161.336 235.018 160.591 235.324C159.845 235.63 158.99 235.477 158.399 234.929C158.277 234.816 145.977 223.585 137.029 227.589C134.968 228.512 135.005 231.295 135.011 231.495C135.072 232.509 134.426 233.375 133.429 233.585Z" fill="#317F8B"/>
<path d="M161.507 233.426C161.554 234.003 161.468 234.528 161.352 234.983C161.295 235.218 161.223 235.421 161.151 235.63C161.077 235.826 160.996 236.025 160.917 236.202C160.592 236.931 160.24 237.536 159.906 238.122C159.57 238.705 159.247 239.259 158.946 239.815L158.726 240.233C158.657 240.373 158.583 240.512 158.516 240.653L158.321 241.078L158.135 241.507L157.967 241.943L157.81 242.385C157.757 242.533 157.717 242.685 157.669 242.835C157.62 242.985 157.582 243.139 157.541 243.291C157.385 243.906 157.25 244.538 157.172 245.19C157.087 245.84 157.032 246.508 157.016 247.186C156.999 247.528 157.006 247.869 157.003 248.216C156.997 248.39 157.012 248.562 157.013 248.737C157.016 248.912 157.022 249.087 157.021 249.265V249.277C157.021 249.414 156.91 249.524 156.771 249.524C156.675 249.524 156.592 249.47 156.551 249.39C156.22 248.751 155.921 248.087 155.69 247.393C155.446 246.702 155.271 245.981 155.143 245.244C154.891 243.769 154.897 242.208 155.174 240.683L155.288 240.114C155.332 239.927 155.381 239.74 155.428 239.552C155.478 239.365 155.533 239.182 155.585 238.996C155.64 238.812 155.704 238.632 155.764 238.451C156.013 237.728 156.32 237.041 156.636 236.397C156.952 235.755 157.287 235.148 157.559 234.622C157.846 234.089 158.008 233.656 158.104 233.422L158.303 232.933C158.65 232.085 159.622 231.678 160.474 232.023C161.076 232.269 161.456 232.824 161.507 233.426Z" fill="#317F8B"/>
<path d="M177.77 298.666C177.249 298.666 176.747 298.379 176.5 297.883C176.15 297.185 176.436 296.338 177.137 295.99C182.855 293.156 186.763 284.313 188.434 270.416C189.73 259.646 189.192 249.629 189.186 249.53C189.143 248.752 189.74 248.086 190.522 248.041C191.3 247.997 191.972 248.594 192.016 249.372C192.022 249.474 192.574 259.704 191.253 270.714C190.472 277.23 189.196 282.758 187.461 287.146C185.216 292.824 182.167 296.651 178.4 298.518C178.197 298.618 177.982 298.666 177.77 298.666Z" fill="#317F8B"/>
<g opacity="0.35">
<g opacity="0.35">
<g opacity="0.35">
<g opacity="0.35">
<path opacity="0.35" d="M360.703 389.537V389.249C358.436 389.346 360.703 389.537 360.703 389.537Z" fill="#317F8B"/>
</g>
</g>
</g>
</g>
<path d="M332.093 354.854H195.92C195.92 354.854 196.75 331.448 204.805 297.881C208.034 284.418 212.428 269.322 218.394 253.444C219.828 249.633 221.355 245.776 222.974 241.882C227.502 231.018 232.783 219.892 238.941 208.767H289.073C294.163 217.966 298.655 227.16 302.616 236.216C305.178 242.071 307.52 247.865 309.655 253.556C318.974 278.366 324.446 301.264 327.648 318.99C331.598 340.858 332.093 354.854 332.093 354.854Z" fill="white"/>
<path d="M313.398 271.013C316.03 273.94 317.233 277.346 318.345 280.767C318.903 282.478 319.453 284.192 319.978 285.915C320.241 286.775 320.51 287.635 320.745 288.503C320.987 289.369 321.221 290.239 321.457 291.108L322.147 293.718C322.373 294.588 322.603 295.458 322.816 296.333L324.069 301.585C324.273 302.461 324.496 303.332 324.696 304.21L325.293 306.841L325.907 309.469C326.113 310.345 326.326 311.219 326.519 312.097L327.701 317.364C327.904 318.24 328.078 319.123 328.265 320.003L328.819 322.645L329.095 323.965L329.234 324.626L329.363 325.288L329.881 327.936C330.054 328.819 330.232 329.701 330.419 330.581C330.598 331.463 330.778 332.345 330.966 333.226C331.756 336.742 332.332 340.303 332.571 343.91C332.602 344.361 332.637 344.81 332.658 345.263L332.716 346.62C332.746 347.526 332.77 348.43 332.757 349.342C332.751 350.251 332.731 351.161 332.672 352.075C332.619 352.988 332.543 353.902 332.404 354.823C332.378 355 332.211 355.122 332.033 355.096C331.912 355.078 331.817 354.995 331.776 354.889L331.775 354.885C331.124 353.162 330.592 351.432 330.09 349.702C329.843 348.837 329.605 347.969 329.374 347.103L329.043 345.801C328.939 345.366 328.831 344.932 328.722 344.498C328.301 342.759 327.929 341.017 327.594 339.266C327.433 338.39 327.287 337.511 327.153 336.63C327.009 335.75 326.876 334.869 326.739 333.989C326.605 333.107 326.465 332.227 326.322 331.347C326.17 330.468 326.001 329.593 325.83 328.718L325.316 326.092L325.188 325.436L325.051 324.781L324.776 323.472L324.227 320.853C324.042 319.981 323.868 319.105 323.667 318.236L322.495 313.013C322.307 312.142 322.087 311.276 321.879 310.409L321.238 307.81L320.582 305.216C320.475 304.783 320.354 304.353 320.238 303.923L319.886 302.632L318.469 297.471C317.98 295.755 317.478 294.043 317.001 292.324C316.763 291.464 316.525 290.605 316.293 289.743L316.121 289.097L315.938 288.454L315.579 287.165C315.099 285.447 314.645 283.721 314.197 281.993L313.868 280.695C313.758 280.262 313.637 279.833 313.521 279.401C313.291 278.539 313.098 277.664 312.953 276.776C312.809 275.886 312.708 274.982 312.669 274.058C312.649 273.596 312.647 273.129 312.664 272.654C312.682 272.18 312.712 271.7 312.796 271.204L312.8 271.185C312.832 270.998 313.01 270.871 313.198 270.903C313.278 270.917 313.349 270.958 313.398 271.013Z" fill="#317F8B"/>
<path d="M195.601 354.844C195.391 354.379 195.247 353.917 195.112 353.453C194.977 352.987 194.876 352.528 194.786 352.065C194.605 351.139 194.507 350.218 194.453 349.3C194.428 348.84 194.411 348.382 194.412 347.924C194.413 347.467 194.431 347.012 194.453 346.557L194.53 345.191C194.554 344.736 194.582 344.281 194.62 343.827C194.761 342.011 194.9 340.192 195.113 338.385C195.209 337.48 195.317 336.576 195.424 335.671C195.476 335.22 195.546 334.77 195.607 334.318L195.799 332.967L196.199 330.266C196.34 329.367 196.503 328.473 196.656 327.576C196.969 325.784 197.264 323.989 197.621 322.206C197.968 320.42 198.286 318.63 198.641 316.848C199.001 315.067 199.353 313.283 199.7 311.499C199.788 311.053 199.867 310.606 199.964 310.162L200.25 308.829L200.82 306.164L201.39 303.498C201.439 303.276 201.483 303.053 201.534 302.832L201.691 302.169L202.004 300.842L203.255 295.535C203.355 295.092 203.469 294.652 203.581 294.211C203.69 293.77 203.801 293.329 203.905 292.888C204.116 292.003 204.325 291.119 204.526 290.232C204.731 289.347 204.932 288.459 205.144 287.575C205.348 286.688 205.604 285.816 205.86 284.943C206.122 284.073 206.4 283.206 206.691 282.344C206.984 281.482 207.295 280.625 207.609 279.77L208.094 278.491C208.176 278.279 208.266 278.069 208.355 277.858C208.445 277.647 208.531 277.436 208.624 277.226C208.99 276.387 209.361 275.551 209.755 274.723C210.145 273.893 210.552 273.07 210.98 272.255C211.407 271.439 211.851 270.629 212.343 269.837C212.437 269.684 212.638 269.637 212.791 269.732C212.895 269.796 212.951 269.91 212.945 270.025V270.03C212.741 273.757 212.04 277.303 211.348 280.848C211.17 281.733 210.989 282.616 210.789 283.494C210.589 284.372 210.373 285.245 210.144 286.113C209.666 287.846 209.185 289.577 208.684 291.305C208.433 292.169 208.189 293.034 207.948 293.901C207.825 294.333 207.711 294.768 207.594 295.202C207.48 295.637 207.362 296.07 207.264 296.51L206.027 301.76L205.717 303.072L205.563 303.729C205.512 303.948 205.468 304.168 205.42 304.387L204.856 307.024L204.291 309.661L204.009 310.981C203.914 311.42 203.835 311.863 203.748 312.303C202.299 319.349 201.325 326.48 200.378 333.597L200.01 336.264C199.896 337.154 199.781 338.044 199.657 338.933L198.926 344.267C198.794 345.156 198.687 346.045 198.567 346.934C198.505 347.378 198.439 347.823 198.356 348.265C198.274 348.708 198.194 349.151 198.094 349.592C197.896 350.476 197.65 351.357 197.358 352.235C197.213 352.675 197.039 353.115 196.861 353.553C196.679 353.991 196.48 354.432 196.236 354.869L196.233 354.873C196.138 355.043 195.924 355.104 195.754 355.009C195.682 354.968 195.631 354.91 195.601 354.844Z" fill="#317F8B"/>
<path d="M235.14 325.323C227.374 328.455 215.354 327.8 207.16 326.811C202.246 326.22 198.795 321.702 199.52 316.824C200.181 312.373 204.115 309.136 208.627 309.346C216.291 309.704 227.788 309.872 235.069 308.263" fill="white"/>
<g opacity="0.35">
<g opacity="0.35">
<g opacity="0.35">
<g opacity="0.35">
<path opacity="0.35" d="M235.142 325.322C227.374 328.458 215.354 327.796 207.16 326.815C202.246 326.222 198.796 321.702 199.521 316.827C199.665 315.832 199.979 314.898 200.425 314.046C201.719 316.507 204.169 318.32 207.16 318.682C215.339 319.67 227.339 320.325 235.108 317.209L235.142 325.322Z" fill="#317F8B"/>
</g>
</g>
</g>
</g>
<path d="M219.7 329.682C215.206 329.682 210.738 329.313 206.912 328.852C203.982 328.499 201.382 327.017 199.591 324.679C197.796 322.337 197.046 319.441 197.479 316.525C197.874 313.867 199.237 311.463 201.316 309.754C203.398 308.043 206.029 307.17 208.723 307.297C220.014 307.823 229.211 307.455 234.621 306.26C235.707 306.02 238.406 306.011 239.999 311.113C241.617 316.296 241.438 325.002 235.915 327.229C231.36 329.064 225.509 329.682 219.7 329.682ZM208.208 311.392C204.881 311.392 202.053 313.805 201.561 317.125C201.293 318.934 201.758 320.732 202.871 322.185C203.981 323.634 205.592 324.553 207.409 324.772C219.126 326.183 228.701 325.703 234.367 323.419C236.05 322.74 236.533 320.024 236.663 318.887C237.117 314.912 235.902 311.239 235.141 310.35C227.757 311.897 216.63 311.778 208.532 311.4C208.423 311.394 208.315 311.392 208.208 311.392Z" fill="#317F8B"/>
<path d="M294.546 325.323C302.312 328.455 314.332 327.8 322.525 326.811C327.44 326.22 330.89 321.702 330.166 316.824C329.505 312.373 325.571 309.136 321.059 309.346C313.395 309.704 301.898 309.872 294.617 308.263" fill="white"/>
<g opacity="0.35">
<g opacity="0.35">
<g opacity="0.35">
<g opacity="0.35">
<path opacity="0.35" d="M322.523 326.815C314.329 327.796 302.311 328.458 294.541 325.322L294.575 317.134C302.344 320.25 314.343 319.595 322.523 318.606C325.501 318.252 327.937 316.451 329.238 314.004C329.696 314.864 330.018 315.811 330.169 316.826C330.888 321.702 327.438 326.222 322.523 326.815Z" fill="#317F8B"/>
</g>
</g>
</g>
</g>
<path d="M309.987 329.682C304.178 329.682 298.328 329.065 293.772 327.228C288.249 325.001 288.07 316.294 289.688 311.112C291.28 306.011 293.98 306.019 295.066 306.259C300.477 307.455 309.674 307.823 320.964 307.295C323.66 307.17 326.289 308.043 328.37 309.753C330.45 311.462 331.813 313.866 332.208 316.524C332.641 319.44 331.89 322.336 330.096 324.678C328.305 327.016 325.705 328.498 322.775 328.851C318.949 329.312 314.48 329.682 309.987 329.682ZM294.547 310.35C293.786 311.239 292.571 314.912 293.025 318.888C293.154 320.024 293.637 322.74 295.321 323.419C300.987 325.704 310.562 326.185 322.279 324.772C324.094 324.553 325.707 323.634 326.817 322.185C327.93 320.732 328.395 318.935 328.127 317.125C327.619 313.699 324.623 311.239 321.158 311.4C313.057 311.778 301.931 311.895 294.547 310.35Z" fill="#317F8B"/>
<path d="M297.547 302.626V329.965C297.547 335.037 293.379 339.188 288.287 339.188H237.737C232.652 339.188 228.483 335.037 228.483 329.965V302.626C228.483 297.554 232.652 293.409 237.737 293.409H288.287C291.285 293.409 293.961 294.848 295.658 297.063C296.842 298.61 297.547 300.54 297.547 302.626Z" fill="white"/>
<g opacity="0.35">
<g opacity="0.35">
<g opacity="0.35">
<g opacity="0.35">
<path opacity="0.35" d="M297.546 302.626V329.965C297.546 335.037 293.38 339.186 288.287 339.186H237.739C232.647 339.186 228.48 335.037 228.48 329.965V319.739C236.072 327.448 251.003 332.288 264.696 332.36C269.095 332.384 272.645 328.918 272.959 324.546C272.962 324.502 272.966 324.458 272.969 324.415C273.306 320.579 276.477 317.474 280.333 317.197C284.723 316.882 288.43 320.112 288.864 324.31C295.492 316.16 293.551 301.995 295.659 297.063C296.844 298.613 297.546 300.539 297.546 302.626Z" fill="#317F8B"/>
</g>
</g>
</g>
</g>
<path d="M288.288 341.242H237.738C231.497 341.242 226.419 336.184 226.419 329.968V302.626C226.419 296.41 231.497 291.353 237.738 291.353H288.288C294.529 291.353 299.607 296.41 299.607 302.626V329.968C299.607 336.184 294.529 341.242 288.288 341.242ZM237.738 295.462C233.771 295.462 230.544 298.676 230.544 302.626V329.968C230.544 333.919 233.771 337.133 237.738 337.133H288.288C292.255 337.133 295.482 333.919 295.482 329.968V302.626C295.482 298.676 292.255 295.462 288.288 295.462H237.738Z" fill="#317F8B"/>
<path d="M280.921 324.248C285.33 324.248 288.904 320.688 288.904 316.297C288.904 311.905 285.33 308.346 280.921 308.346C276.513 308.346 272.938 311.905 272.938 316.297C272.938 320.688 276.513 324.248 280.921 324.248Z" fill="#22A7F0"/>
<g opacity="0.7">
<g opacity="0.7">
<g opacity="0.7">
<g opacity="0.7">
<path opacity="0.7" d="M288.904 316.297C288.904 316.841 288.852 317.37 288.749 317.886C288.012 314.25 284.787 311.515 280.924 311.515C277.055 311.515 273.83 314.25 273.093 317.886C272.99 317.37 272.938 316.842 272.938 316.297C272.938 311.903 276.513 308.348 280.924 308.348C285.328 308.348 288.904 311.903 288.904 316.297Z" fill="white"/>
</g>
</g>
</g>
</g>
<g opacity="0.35">
<g opacity="0.35">
<g opacity="0.35">
<g opacity="0.35">
<path opacity="0.35" d="M288.902 316.296C288.902 320.686 285.329 324.244 280.921 324.244C276.513 324.244 272.94 320.686 272.94 316.296C272.94 315.28 273.132 314.311 273.488 313.419C274.638 316.385 277.534 318.484 280.922 318.484C284.31 318.484 287.205 316.385 288.356 313.419C288.71 314.311 288.902 315.279 288.902 316.296Z" fill="#317F8B"/>
</g>
</g>
</g>
</g>
<path d="M280.921 325.788C275.667 325.788 271.392 321.53 271.392 316.297C271.392 311.063 275.667 306.805 280.921 306.805C286.176 306.805 290.451 311.063 290.451 316.297C290.451 321.53 286.176 325.788 280.921 325.788ZM280.921 309.887C277.373 309.887 274.486 312.763 274.486 316.297C274.486 319.831 277.373 322.706 280.921 322.706C284.469 322.706 287.356 319.831 287.356 316.297C287.356 312.763 284.469 309.887 280.921 309.887Z" fill="#317F8B"/>
<path d="M258.301 340.728C257.446 340.728 256.754 340.038 256.754 339.187V320.462L246.646 312.881V293.407C246.646 292.556 247.338 291.867 248.192 291.867C249.046 291.867 249.739 292.557 249.739 293.407V311.343L259.848 318.924V339.187C259.848 340.038 259.155 340.728 258.301 340.728Z" fill="#317F8B"/>
<path d="M264.004 353.907C272.946 353.907 281.545 350.602 288.261 344.721C297.564 336.576 313.225 326.862 330.51 333.093C337.446 335.591 342.173 340.176 345.398 345.248C353.702 326.082 371.124 324.933 378.665 335.796C378.665 335.796 365.99 396.024 361.859 397.365C355.941 399.285 341.721 397.266 341.721 397.266C341.721 397.266 292.253 390.595 264.004 390.595C235.756 390.595 186.287 397.266 186.287 397.266C186.287 397.266 172.068 399.284 166.15 397.365C162.019 396.024 149.344 335.796 149.344 335.796C156.883 324.932 174.306 326.082 182.611 345.248C185.835 340.174 190.562 335.591 197.498 333.093C214.784 326.862 230.445 336.576 239.747 344.721C246.464 350.601 255.062 353.907 264.004 353.907Z" fill="white"/>
<g opacity="0.35">
<path d="M378.666 335.794C378.666 335.794 365.99 396.024 361.859 397.365C355.944 399.286 341.721 397.268 341.721 397.268C341.721 397.268 292.254 390.595 264.004 390.595C235.759 390.595 186.287 397.268 186.287 397.268C186.287 397.268 172.068 399.286 166.154 397.365C162.023 396.024 149.347 335.794 149.347 335.794C150.589 334.006 152.095 332.542 153.787 331.433C157.851 349.092 163.616 372.15 166.154 372.972C172.069 374.888 186.287 372.869 186.287 372.869C186.287 372.869 235.759 359.525 264.004 359.525C292.254 359.525 341.721 372.869 341.721 372.869C341.721 372.869 355.944 374.888 361.859 372.972C364.397 372.15 370.162 349.092 374.226 331.433C375.918 332.543 377.424 334.007 378.666 335.794Z" fill="#317F8B"/>
</g>
<path d="M173.777 400.242C170.674 400.242 167.643 400.01 165.512 399.319C164.058 398.847 162.836 397.242 160.542 390.124C159.199 385.958 157.588 380.156 155.754 372.881C152.452 359.782 149.234 345.091 148.004 339.383C147.36 336.394 148.343 333.303 150.571 331.318C154.848 327.504 160.581 326.036 166.299 327.289C169.902 328.08 173.408 329.953 176.438 332.708C178.948 334.991 181.129 337.841 182.948 341.212C186.639 336.521 191.286 333.147 196.799 331.161C203.046 328.909 209.582 328.462 216.227 329.831C221.591 330.938 227.046 333.232 232.439 336.652C233.401 337.262 233.683 338.531 233.072 339.489C232.461 340.447 231.185 340.728 230.224 340.119C219.124 333.081 208.35 331.367 198.203 335.026C192.48 337.088 187.821 340.896 184.356 346.348C183.947 346.992 183.212 347.356 182.451 347.298C181.689 347.238 181.023 346.763 180.719 346.063C177.249 338.055 171.67 332.675 165.412 331.304C161.005 330.339 156.599 331.46 153.323 334.382C152.196 335.386 151.704 336.973 152.038 338.523C153.199 343.911 156.243 357.811 159.413 370.511C161.156 377.492 162.701 383.172 164.005 387.39C165.83 393.298 166.784 395.031 167.123 395.514C171.783 396.815 182.265 395.765 185.998 395.235C186.003 395.234 186.007 395.234 186.012 395.233C186.507 395.166 235.943 388.543 264.006 388.543C292.069 388.543 341.504 395.166 341.999 395.233C342.004 395.234 342.01 395.234 342.014 395.235C345.748 395.765 356.229 396.815 360.89 395.514C361.223 395.04 362.15 393.357 363.915 387.691C365.188 383.604 366.695 378.097 368.396 371.323C371.428 359.244 374.335 346.102 375.797 339.343C376.277 337.129 375.444 334.858 373.675 333.56C370.299 331.081 366.115 330.341 361.895 331.477C355.849 333.104 350.664 338.285 347.294 346.064C346.991 346.763 346.324 347.239 345.561 347.299C344.798 347.359 344.065 346.993 343.656 346.349C340.192 340.898 335.534 337.089 329.811 335.027C319.574 331.337 308.709 333.11 297.513 340.296C296.555 340.911 295.279 340.636 294.661 339.682C294.045 338.729 294.32 337.457 295.278 336.842C300.704 333.359 306.195 331.014 311.597 329.872C318.307 328.454 324.908 328.888 331.215 331.162C336.728 333.149 341.375 336.523 345.067 341.215C348.941 334.041 354.445 329.225 360.819 327.509C366.2 326.06 371.778 327.06 376.124 330.252C379.197 332.508 380.652 336.416 379.832 340.208C378.283 347.369 375.212 361.241 372.053 373.695C370.263 380.757 368.689 386.384 367.377 390.417C365.138 397.298 363.936 398.856 362.5 399.321C356.227 401.356 342.158 399.406 341.442 399.304C340.666 399.2 291.71 392.653 264.007 392.653C236.299 392.653 187.348 399.2 186.572 399.304C186.096 399.369 179.804 400.242 173.777 400.242Z" fill="#317F8B"/>
<path d="M358.186 397.365H361.86C366.173 397.365 370.084 394.845 371.84 390.922C377.34 378.656 387.367 351.702 377.975 335.255C377.702 334.775 377.409 334.313 377.099 333.87C377.099 333.87 368.083 325.701 361.604 337.257C355.554 348.053 342.853 394.213 358.186 397.365Z" fill="#AFAFB2"/>
<g opacity="0.7">
<g opacity="0.7">
<g opacity="0.7">
<g opacity="0.7">
<path opacity="0.7" d="M358.287 344.952C358.449 344.693 358.611 344.449 358.769 344.222C366.734 332.666 377.822 340.835 377.822 340.835C378.202 341.278 378.564 341.74 378.897 342.22C380.01 343.803 380.899 345.483 381.594 347.241C381.145 342.921 380.023 338.837 377.975 335.256C377.702 334.776 377.41 334.314 377.1 333.871C377.1 333.871 368.083 325.702 361.605 337.258C360.622 339.008 359.469 341.68 358.287 344.952Z" fill="white"/>
</g>
</g>
</g>
</g>
<path d="M381.544 348.473C381.451 348.473 381.357 348.466 381.262 348.45L358.724 344.702C357.798 344.549 357.172 343.676 357.326 342.752C357.48 341.829 358.358 341.206 359.283 341.359L381.821 345.107C382.748 345.26 383.373 346.133 383.219 347.057C383.081 347.887 382.361 348.473 381.544 348.473Z" fill="#317F8B"/>
<path d="M381.401 360.602C381.325 360.602 381.249 360.597 381.172 360.586L354.807 357.055C353.876 356.931 353.223 356.079 353.347 355.151C353.472 354.224 354.328 353.574 355.26 353.698L381.625 357.228C382.556 357.353 383.209 358.205 383.085 359.132C382.97 359.984 382.24 360.602 381.401 360.602Z" fill="#317F8B"/>
<path d="M379.076 372.481C379.007 372.481 378.938 372.477 378.867 372.469L352.103 369.206C351.171 369.092 350.508 368.247 350.621 367.319C350.736 366.39 351.583 365.728 352.516 365.842L379.28 369.105C380.212 369.219 380.875 370.064 380.762 370.992C380.657 371.852 379.923 372.481 379.076 372.481Z" fill="#317F8B"/>
<path d="M374.832 385.436C374.781 385.436 374.728 385.434 374.676 385.429L350.748 383.279C349.813 383.195 349.123 382.371 349.207 381.439C349.291 380.507 350.119 379.82 351.054 379.904L374.982 382.055C375.918 382.138 376.608 382.963 376.523 383.895C376.444 384.774 375.701 385.436 374.832 385.436Z" fill="#317F8B"/>
<g opacity="0.35">
<g opacity="0.35">
<g opacity="0.35">
<g opacity="0.35">
<path opacity="0.35" d="M358.184 397.365H361.858C366.171 397.365 370.082 394.845 371.839 390.922C373.261 387.742 374.99 383.584 376.607 378.872C374.401 382.518 369.92 384.83 365 384.83H360.621C354.389 383.755 352.044 377.667 351.951 369.688C349.844 383.156 350.422 395.769 358.184 397.365Z" fill="#317F8B"/>
</g>
</g>
</g>
</g>
<path d="M361.86 399.059H358.186C358.07 399.059 357.956 399.048 357.842 399.024C354.872 398.413 352.628 396.495 351.171 393.323C347.737 385.844 349.406 372.814 351.412 363.201C353.863 351.453 357.648 340.841 360.12 336.432C362.393 332.377 365.256 330.043 368.628 329.495C373.801 328.655 378.066 332.455 378.245 332.617C378.339 332.701 378.423 332.797 378.496 332.9C378.835 333.383 379.158 333.895 379.456 334.418C383.749 341.935 384.66 352.218 382.164 364.98C380.134 375.354 376.275 385.189 373.395 391.612C371.369 396.136 366.842 399.059 361.86 399.059ZM358.371 395.671H361.86C365.5 395.671 368.808 393.536 370.287 390.233C373.095 383.97 376.855 374.393 378.823 364.334C381.16 352.39 380.377 342.888 376.498 336.093C376.287 335.722 376.061 335.361 375.826 335.015C375.189 334.497 372.294 332.322 369.157 332.842C366.868 333.223 364.827 334.986 363.091 338.084C360.803 342.166 357.1 352.598 354.743 363.891C352.055 376.778 351.885 386.731 354.266 391.915C355.232 394.019 356.576 395.25 358.371 395.671Z" fill="#317F8B"/>
<path d="M169.826 397.365H166.152C161.839 397.365 157.928 394.845 156.171 390.922C150.672 378.656 140.644 351.702 150.037 335.255C150.31 334.775 150.603 334.313 150.912 333.87C150.912 333.87 159.929 325.701 166.407 337.257C172.458 348.053 185.158 394.213 169.826 397.365Z" fill="#AFAFB2"/>
<g opacity="0.7">
<g opacity="0.7">
<g opacity="0.7">
<g opacity="0.7">
<path opacity="0.7" d="M169.723 344.952C169.561 344.693 169.398 344.449 169.241 344.222C161.276 332.666 150.187 340.835 150.187 340.835C149.808 341.278 149.446 341.74 149.112 342.22C148 343.803 147.111 345.483 146.416 347.241C146.865 342.921 147.987 338.837 150.034 335.256C150.308 334.776 150.6 334.314 150.91 333.871C150.91 333.871 159.927 325.702 166.405 337.258C167.387 339.008 168.541 341.68 169.723 344.952Z" fill="white"/>
</g>
</g>
</g>
</g>
<path d="M146.465 348.473C145.649 348.473 144.928 347.886 144.789 347.058C144.635 346.135 145.26 345.262 146.187 345.108L168.725 341.36C169.651 341.207 170.528 341.829 170.682 342.753C170.836 343.676 170.212 344.549 169.284 344.703L146.746 348.451C146.652 348.467 146.558 348.473 146.465 348.473Z" fill="#317F8B"/>
<path d="M146.608 360.602C145.769 360.602 145.039 359.984 144.924 359.134C144.8 358.206 145.453 357.354 146.384 357.229L172.75 353.698C173.682 353.572 174.537 354.224 174.663 355.151C174.788 356.079 174.134 356.931 173.203 357.056L146.837 360.587C146.76 360.597 146.684 360.602 146.608 360.602Z" fill="#317F8B"/>
<path d="M148.934 372.481C148.087 372.481 147.354 371.852 147.248 370.992C147.134 370.064 147.797 369.219 148.73 369.105L175.494 365.842C176.426 365.729 177.275 366.389 177.389 367.318C177.504 368.247 176.84 369.092 175.907 369.206L149.143 372.469C149.073 372.478 149.002 372.481 148.934 372.481Z" fill="#317F8B"/>
<path d="M153.179 385.436C152.308 385.436 151.567 384.774 151.487 383.894C151.403 382.963 152.093 382.139 153.028 382.055L176.957 379.904C177.893 379.821 178.719 380.507 178.804 381.439C178.888 382.371 178.198 383.194 177.263 383.279L153.335 385.429C153.282 385.434 153.23 385.436 153.179 385.436Z" fill="#317F8B"/>
<g opacity="0.35">
<g opacity="0.35">
<g opacity="0.35">
<g opacity="0.35">
<path opacity="0.35" d="M169.825 397.365H166.151C161.838 397.365 157.927 394.845 156.171 390.922C154.749 387.742 153.019 383.584 151.402 378.872C153.608 382.518 158.089 384.83 163.009 384.83H167.388C173.621 383.755 175.965 377.667 176.058 369.688C178.165 383.156 177.586 395.769 169.825 397.365Z" fill="#317F8B"/>
</g>
</g>
</g>
</g>
<path d="M169.825 399.059H166.151C161.17 399.059 156.642 396.136 154.617 391.612C151.738 385.19 147.878 375.355 145.848 364.981C143.352 352.22 144.263 341.936 148.556 334.418C148.854 333.895 149.177 333.385 149.515 332.901C149.588 332.797 149.672 332.702 149.766 332.618C149.945 332.455 154.21 328.656 159.383 329.496C162.755 330.044 165.618 332.378 167.891 336.433C170.363 340.842 174.148 351.454 176.599 363.202C178.605 372.815 180.274 385.845 176.84 393.324C175.382 396.497 173.138 398.414 170.169 399.025C170.055 399.048 169.94 399.059 169.825 399.059ZM152.183 335.017C151.949 335.361 151.724 335.722 151.513 336.092C147.633 342.888 146.849 352.389 149.187 364.333C151.155 374.394 154.914 383.97 157.723 390.233C159.202 393.537 162.51 395.672 166.15 395.672H169.639C171.434 395.251 172.779 394.02 173.745 391.915C176.125 386.731 175.956 376.778 173.268 363.891C170.911 352.598 167.208 342.166 164.92 338.084C163.184 334.986 161.143 333.223 158.854 332.842C155.722 332.323 152.829 334.491 152.183 335.017Z" fill="#317F8B"/>
<path d="M211.296 395.819C211.055 395.819 210.81 395.762 210.581 395.643C209.823 395.249 209.531 394.317 209.928 393.562C216.388 381.269 216.483 367.443 210.211 352.47C205.481 341.178 198.706 333.45 198.638 333.373C198.074 332.735 198.135 331.762 198.776 331.198C199.416 330.636 200.394 330.696 200.958 331.334C201.248 331.66 208.095 339.457 213.03 351.196C215.942 358.123 217.566 364.977 217.859 371.57C218.226 379.858 216.48 387.738 212.669 394.991C212.392 395.519 211.853 395.819 211.296 395.819Z" fill="#317F8B"/>
<path d="M317.34 395.819C316.783 395.819 316.245 395.518 315.968 394.992C312.157 387.739 310.411 379.859 310.778 371.571C311.071 364.978 312.695 358.124 315.607 351.197C320.542 339.458 327.389 331.66 327.678 331.335C328.244 330.697 329.222 330.636 329.862 331.199C330.503 331.762 330.564 332.735 329.998 333.373C329.93 333.45 323.156 341.177 318.426 352.47C312.154 367.444 312.249 381.269 318.709 393.562C319.105 394.317 318.812 395.247 318.056 395.643C317.827 395.762 317.582 395.819 317.34 395.819Z" fill="#317F8B"/>
<g opacity="0.35">
<path d="M315.27 247.779C313.485 249.813 311.609 251.745 309.654 253.559C305.013 257.863 299.927 261.525 294.487 264.428C285.296 269.338 275.101 272.092 264.364 272.143C253.874 272.189 243.89 269.651 234.84 265.039C228.914 262.013 223.39 258.104 218.393 253.446C215.908 251.124 213.55 248.622 211.338 245.957C215.345 244.724 219.326 243.296 222.972 241.883C227.5 231.019 232.78 219.893 238.939 208.768H289.071C294.161 217.967 298.653 227.161 302.613 236.217C306.389 238.41 310.737 242.54 315.27 247.779Z" fill="#317F8B"/>
</g>
<path d="M340.559 198.175C339.686 198.269 338.903 197.64 338.808 196.77L333.916 151.42C333.821 150.551 334.453 149.77 335.326 149.676C344.485 148.696 352.707 155.296 353.691 164.418L355.362 179.883C356.346 189.006 349.718 197.195 340.559 198.175Z" fill="white"/>
<path d="M340.386 198.575C339.936 198.575 339.502 198.424 339.147 198.138C338.734 197.807 338.477 197.336 338.42 196.812L333.527 151.462C333.471 150.938 333.623 150.423 333.955 150.013C334.287 149.603 334.76 149.346 335.286 149.289C344.647 148.287 353.077 155.056 354.083 164.378L355.751 179.843C356.239 184.358 354.931 188.792 352.069 192.328C349.208 195.864 345.135 198.079 340.602 198.565L340.56 198.176L340.602 198.565C340.53 198.572 340.458 198.575 340.386 198.575ZM337.122 149.97C336.542 149.97 335.958 150.001 335.37 150.064C335.051 150.098 334.766 150.254 334.565 150.501C334.364 150.749 334.272 151.06 334.306 151.377L339.199 196.727C339.233 197.045 339.39 197.329 339.639 197.529C339.889 197.729 340.2 197.821 340.519 197.787C344.845 197.324 348.73 195.21 351.46 191.837C354.191 188.463 355.438 184.233 354.973 179.924L353.305 164.459C352.407 156.152 345.329 149.97 337.122 149.97Z" fill="#317F8B"/>
<g opacity="0.35">
<g opacity="0.35">
<g opacity="0.35">
<g opacity="0.35">
<path opacity="0.35" d="M354.58 172.631L355.364 179.884C356.347 189.003 349.721 197.195 340.561 198.178C339.688 198.273 338.904 197.639 338.81 196.77L337.505 184.715C337.809 185.238 338.403 185.559 339.044 185.495L340.123 185.377C347.36 184.603 353.02 179.323 354.58 172.631Z" fill="#317F8B"/>
</g>
</g>
</g>
</g>
<path d="M340.384 200.358C339.526 200.358 338.701 200.069 338.024 199.526C337.239 198.897 336.748 198 336.641 197.003L331.748 151.653C331.64 150.656 331.929 149.675 332.561 148.894C333.192 148.112 334.093 147.623 335.094 147.516C345.433 146.409 354.751 153.888 355.862 164.187L357.53 179.652C358.069 184.64 356.624 189.54 353.462 193.447C350.301 197.354 345.802 199.801 340.792 200.337C340.657 200.35 340.52 200.358 340.384 200.358ZM340.329 196.015H340.328C340.328 196.015 340.328 196.015 340.329 196.015ZM336.152 151.786L340.915 195.941C344.529 195.408 347.761 193.569 350.067 190.72C352.497 187.717 353.608 183.951 353.194 180.116L351.526 164.651C350.692 156.931 343.861 151.271 336.152 151.786Z" fill="#317F8B"/>
<path d="M185.037 165.762C185.91 165.669 186.694 166.298 186.788 167.167L191.681 212.517C191.775 213.387 191.143 214.167 190.27 214.261C181.111 215.241 172.889 208.641 171.905 199.519L170.237 184.054C169.25 174.932 175.878 166.743 185.037 165.762Z" fill="white"/>
<path d="M188.474 214.748C179.872 214.749 172.453 208.269 171.514 199.561L169.846 184.096C168.84 174.774 175.636 166.376 184.995 165.374L185.037 165.762L184.995 165.374C186.08 165.258 187.06 166.044 187.177 167.126L192.07 212.476C192.186 213.558 191.397 214.532 190.311 214.649C189.695 214.715 189.081 214.748 188.474 214.748ZM185.207 166.143C185.164 166.143 185.122 166.145 185.078 166.15C176.148 167.105 169.664 175.118 170.625 184.012L172.293 199.477C173.252 208.371 181.296 214.829 190.227 213.874C190.884 213.804 191.361 213.214 191.291 212.56L186.398 167.21C186.332 166.598 185.81 166.143 185.207 166.143Z" fill="#317F8B"/>
<g opacity="0.35">
<g opacity="0.35">
<g opacity="0.35">
<g opacity="0.35">
<path opacity="0.35" d="M190.328 199.936L191.684 212.517C191.779 213.387 191.142 214.167 190.27 214.261C185.462 214.774 180.908 213.201 177.527 210.267C174.473 207.617 172.375 203.852 171.907 199.521L171.204 193.005C174.421 198.444 180.643 201.806 187.358 201.089L189.019 200.911C189.625 200.845 190.104 200.455 190.328 199.936Z" fill="#317F8B"/>
</g>
</g>
</g>
</g>
<path d="M188.473 216.53C178.969 216.531 170.773 209.372 169.735 199.751L168.067 184.286C166.956 173.987 174.465 164.708 184.805 163.601C186.871 163.379 188.735 164.875 188.957 166.934L193.85 212.285C194.073 214.345 192.571 216.199 190.503 216.421C189.821 216.495 189.143 216.53 188.473 216.53ZM184.683 167.998C177.04 169.127 171.572 176.102 172.404 183.823L174.072 199.288C174.906 207.008 181.737 212.666 189.446 212.153L184.683 167.998Z" fill="#317F8B"/>
<path d="M262.806 259.693C305.905 259.693 340.843 224.895 340.843 181.968C340.843 139.042 305.905 104.243 262.806 104.243C219.708 104.243 184.77 139.042 184.77 181.968C184.77 224.895 219.708 259.693 262.806 259.693Z" fill="white"/>
<path d="M262.731 260.085C253.163 260.085 243.816 258.377 234.904 254.994C225.428 251.398 216.843 246.069 209.385 239.16C201.927 232.249 195.974 224.104 191.689 214.95C187.253 205.472 184.811 195.323 184.429 184.785C184.046 174.246 185.748 163.949 189.487 154.177C193.097 144.739 198.447 136.188 205.385 128.76C212.322 121.332 220.502 115.401 229.694 111.133C239.21 106.715 249.399 104.282 259.98 103.902C270.561 103.521 280.9 105.216 290.71 108.94C300.187 112.536 308.772 117.865 316.229 124.774C323.687 131.685 329.64 139.83 333.926 148.984C338.361 158.462 340.804 168.611 341.186 179.149C341.568 189.688 339.866 199.985 336.128 209.757C332.517 219.195 327.167 227.746 320.229 235.174C313.29 242.602 305.112 248.532 295.922 252.8C286.406 257.218 276.217 259.65 265.636 260.031C264.664 260.067 263.696 260.085 262.731 260.085ZM262.843 104.631C261.9 104.631 260.958 104.648 260.007 104.682C217.222 106.221 183.669 142.141 185.212 184.756C185.959 205.399 194.734 224.517 209.918 238.587C224.399 252.007 243.061 259.303 262.736 259.304C263.691 259.304 264.646 259.287 265.605 259.252C286.331 258.508 305.526 249.768 319.653 234.644C333.779 219.521 341.148 199.823 340.4 179.18C338.892 137.512 304.373 104.631 262.843 104.631Z" fill="#317F8B"/>
<g opacity="0.35">
<g opacity="0.35">
<g opacity="0.35">
<g opacity="0.35">
<path opacity="0.35" d="M339.657 168.44C340.281 171.935 340.663 175.515 340.796 179.166C342.344 222.064 308.69 258.094 265.62 259.645C222.55 261.187 186.375 227.667 184.818 184.77C184.773 183.537 184.757 182.301 184.772 181.083C191.399 218.705 225.027 246.647 264.435 245.232C306.267 243.726 339.211 209.698 339.657 168.44Z" fill="#317F8B"/>
</g>
</g>
</g>
</g>
<path d="M262.731 261.867C252.944 261.867 243.384 260.119 234.268 256.66C224.576 252.981 215.794 247.532 208.167 240.464C200.54 233.396 194.451 225.065 190.069 215.702C185.531 206.007 183.033 195.626 182.642 184.848C182.252 174.07 183.993 163.536 187.818 153.541C191.511 143.888 196.982 135.141 204.078 127.545C211.174 119.948 219.537 113.882 228.938 109.518C238.672 104.999 249.095 102.51 259.916 102.122C270.738 101.733 281.313 103.467 291.349 107.277C301.04 110.955 309.823 116.404 317.449 123.472C325.076 130.54 331.165 138.871 335.548 148.234C340.086 157.929 342.584 168.31 342.974 179.088C343.364 189.866 341.624 200.4 337.799 210.395C334.106 220.048 328.634 228.795 321.538 236.392C314.442 243.988 306.077 250.053 296.677 254.418C286.943 258.938 276.52 261.426 265.699 261.814C264.708 261.849 263.717 261.867 262.731 261.867ZM262.844 106.415C261.922 106.415 261.002 106.432 260.074 106.465C218.274 107.967 185.494 143.059 187.002 184.692C187.733 204.86 196.305 223.537 211.139 237.284C225.287 250.394 243.517 257.523 262.741 257.523C263.673 257.523 264.607 257.506 265.544 257.472C285.792 256.745 304.544 248.206 318.346 233.431C332.148 218.657 339.347 199.413 338.615 179.245C337.14 138.536 303.416 106.415 262.844 106.415Z" fill="#317F8B"/>
<path d="M340.618 181.17C341.399 196.359 337.173 210.715 329.307 222.814C323.41 231.885 298.104 248.526 265.898 250.457C236.036 252.248 208.038 237.769 201.241 229.346C192.174 218.11 186.499 204.26 185.718 189.071C183.651 148.875 217.468 130.442 260.245 128.26C303.02 126.078 338.551 140.973 340.618 181.17Z" fill="#17A2B8"/>
<path d="M260.715 252.105C245.866 252.105 232.952 248.419 224.379 245.125C213.524 240.956 203.982 235.129 200.071 230.282C190.473 218.387 184.991 204.162 184.219 189.147C183.707 179.183 185.356 170.142 189.12 162.275C192.663 154.871 198.098 148.456 205.276 143.206C218.389 133.615 237.37 127.931 260.166 126.769C282.964 125.607 302.428 129.329 316.455 137.535C324.133 142.027 330.199 147.856 334.483 154.862C339.034 162.304 341.603 171.13 342.114 181.094C342.886 196.109 338.891 210.816 330.564 223.626C327.104 228.948 318.51 235.471 308.138 240.648C299.027 245.196 284.318 250.849 265.987 251.948C264.206 252.054 262.447 252.105 260.715 252.105ZM268.216 129.546C265.634 129.546 263.003 129.614 260.32 129.75C238.11 130.883 219.691 136.369 207.051 145.613C192.939 155.934 186.265 170.531 187.214 188.994C187.953 203.378 193.208 217.009 202.408 228.411C205.146 231.804 212.825 237.487 225.459 242.34C234.754 245.91 249.297 249.958 265.807 248.968C283.632 247.898 297.936 242.401 306.797 237.978C318.67 232.051 325.666 225.668 328.05 222.003C336.033 209.724 339.862 195.631 339.123 181.247C338.174 162.783 330.037 148.942 314.939 140.11C303.05 133.156 287.011 129.546 268.216 129.546Z" fill="#317F8B"/>
<g opacity="0.5">
<g opacity="0.5">
<g opacity="0.5">
<g opacity="0.5">
<path d="M325.082 178.264C326.056 170.73 322.402 164.052 316.921 163.349C311.439 162.646 306.206 168.184 305.232 175.719C304.258 183.253 307.912 189.931 313.394 190.634C318.875 191.337 324.108 185.799 325.082 178.264Z" fill="white"/>
</g>
</g>
</g>
</g>
<g opacity="0.5">
<g opacity="0.5">
<g opacity="0.5">
<g opacity="0.5">
<path d="M309.571 206.269C310.494 202.906 308.893 199.54 305.995 198.751C303.097 197.963 300 200.05 299.077 203.413C298.154 206.777 299.755 210.142 302.653 210.931C305.551 211.72 308.648 209.633 309.571 206.269Z" fill="white"/>
</g>
</g>
</g>
</g>
<g opacity="0.35">
<path d="M323.627 144.438C333.558 152.954 339.785 165.024 340.618 181.168C341.399 196.36 337.17 210.715 329.31 222.814C323.41 231.885 298.102 248.525 265.896 250.461C254.525 251.146 243.427 249.468 233.662 246.659C273.199 243.44 304.018 223.029 311.332 211.778C321.317 196.421 326.679 178.199 325.685 158.925C325.424 153.773 324.718 148.949 323.627 144.438Z" fill="#317F8B"/>
</g>
<path d="M189.787 156.587C189.347 156.587 188.905 156.451 188.526 156.167C187.635 155.498 187.43 154.26 188.036 153.346C191.275 148.047 195.41 143.204 200.327 138.953C205.114 134.815 210.682 131.202 216.874 128.214C222.937 125.29 229.639 122.948 236.792 121.252C243.88 119.571 251.447 118.516 259.284 118.117C266.993 117.723 274.546 117.989 281.734 118.904C288.988 119.828 295.884 121.417 302.231 123.625C308.725 125.885 314.666 128.803 319.892 132.298C325.263 135.892 329.909 140.118 333.703 144.861C334.365 145.591 334.433 146.711 333.813 147.524C333.112 148.443 331.796 148.622 330.873 147.924L330.653 147.761L330.487 147.551C316.439 129.914 290.564 120.707 259.499 122.292C228.261 123.885 203.51 136.015 191.59 155.571L191.536 155.66L191.464 155.754C191.054 156.299 190.424 156.587 189.787 156.587Z" fill="#317F8B"/>
<g opacity="0.5">
<g opacity="0.5">
<g opacity="0.5">
<g opacity="0.5">
<path d="M204.34 212.096C204.34 212.096 189.802 173.08 210.446 156.183C231.09 139.286 261.964 137.776 261.344 139.784C261.344 139.784 227.592 149.768 215.603 177.359C206.358 198.636 204.34 212.096 204.34 212.096Z" fill="white"/>
</g>
</g>
</g>
</g>
<path d="M333.531 401.837H195.128C190.647 401.837 187.014 398.218 187.014 393.755C187.014 391.183 189.107 389.099 191.689 389.099H336.97C339.552 389.099 341.645 391.183 341.645 393.755C341.645 398.22 338.012 401.837 333.531 401.837Z" fill="#E6E9FA"/>
<g opacity="0.3">
<g opacity="0.3">
<g opacity="0.3">
<g opacity="0.3">
<path opacity="0.3" d="M341.643 393.756C341.643 394.639 341.499 395.488 341.236 396.284C340.509 394.655 338.874 393.526 336.971 393.526H191.69C190.401 393.526 189.231 394.044 188.385 394.892C187.982 395.293 187.652 395.761 187.421 396.285C187.158 395.489 187.014 394.642 187.014 393.757C187.014 392.473 187.534 391.308 188.386 390.465C189.232 389.618 190.402 389.099 191.691 389.099H336.971C339.554 389.098 341.643 391.182 341.643 393.756Z" fill="white"/>
</g>
</g>
</g>
</g>
<g opacity="0.35">
<g opacity="0.35">
<g opacity="0.35">
<g opacity="0.35">
<path opacity="0.35" d="M341.643 393.756C341.643 395.986 340.736 398.01 339.265 399.468C337.8 400.931 335.768 401.836 333.531 401.836H195.13C190.649 401.836 187.013 398.22 187.013 393.756C187.013 392.898 187.245 392.092 187.657 391.398C188.884 394.291 191.772 396.325 195.129 396.325H333.53C335.768 396.325 337.8 395.421 339.264 393.956C339.996 393.227 340.59 392.359 340.997 391.398C341.412 392.092 341.643 392.898 341.643 393.756Z" fill="#317F8B"/>
</g>
</g>
</g>
</g>
<path d="M333.532 403.893H195.129C189.517 403.893 184.952 399.346 184.952 393.756C184.952 390.057 187.975 387.046 191.69 387.046H336.971C340.686 387.046 343.709 390.057 343.709 393.756C343.709 399.345 339.144 403.893 333.532 403.893ZM191.689 391.154C190.249 391.154 189.076 392.321 189.076 393.756C189.076 397.08 191.791 399.784 195.128 399.784H333.532C336.869 399.784 339.583 397.08 339.583 393.756C339.583 392.322 338.412 391.154 336.971 391.154H191.689Z" fill="#317F8B"/>
<path d="M349.723 298.109L336.187 389.096H192.474L191.984 385.804L178.93 298.109C178.503 295.228 180.746 292.644 183.664 292.644H344.988C347.914 292.644 350.151 295.228 349.723 298.109Z" fill="#FF66AC"/>
<path d="M349.723 298.109L336.187 389.096H192.474L191.984 385.804L178.93 298.109C178.503 295.228 180.746 292.644 183.664 292.644H344.988C347.914 292.644 350.151 295.228 349.723 298.109Z" fill="#E6E9FA"/>
<g opacity="0.5">
<g opacity="0.5">
<g opacity="0.5">
<g opacity="0.5">
<path opacity="0.5" d="M184.034 303.757C183.606 300.876 185.849 298.292 188.768 298.292H349.697L349.724 298.11C350.152 295.229 347.915 292.645 344.99 292.645H183.666C180.748 292.645 178.505 295.229 178.932 298.11L191.985 385.806L192.475 389.098H196.737L184.034 303.757Z" fill="white"/>
</g>
</g>
</g>
</g>
<g opacity="0.35">
<g opacity="0.35">
<g opacity="0.35">
<g opacity="0.35">
<path opacity="0.35" d="M340.454 292.644H329.126C333.422 308.317 331.052 343.71 303.341 362.208C268.554 385.428 205.862 385.28 192.552 385.804L193.042 389.096H331.652L345.189 298.109C345.616 295.228 343.379 292.644 340.454 292.644Z" fill="#317F8B"/>
</g>
</g>
</g>
</g>
<path d="M337.965 391.154H190.695L176.894 298.409C176.601 296.445 177.181 294.457 178.482 292.954C179.784 291.451 181.674 290.589 183.667 290.589H344.993C346.986 290.589 348.875 291.451 350.177 292.954C351.479 294.457 352.058 296.445 351.766 298.409L337.965 391.154ZM194.254 387.044H334.405L347.685 297.806C347.803 297.014 347.578 296.244 347.053 295.638C346.528 295.031 345.797 294.698 344.993 294.698H183.667C182.863 294.698 182.131 295.032 181.606 295.638C181.081 296.244 180.857 297.014 180.975 297.806L194.254 387.044Z" fill="#317F8B"/>
<g opacity="0.3">
<g opacity="0.3">
<g opacity="0.3">
<g opacity="0.3">
<path opacity="0.3" d="M203.914 367.839C198.462 355.87 194.492 335.438 195.387 323.413C196.282 311.388 203.284 315.068 205.454 330.471C211.229 371.463 206.347 373.183 203.914 367.839Z" fill="white"/>
</g>
</g>
</g>
</g>
<path d="M283.105 330.547C283.281 329.011 283.485 327.458 283.183 325.896C283.048 325.727 282.924 325.553 282.789 325.384C282.342 325.223 281.908 325.014 281.443 324.898C278.173 324.057 274.857 323.724 271.489 324.013C267.098 324.39 263.067 325.739 259.6 328.52C258.345 329.523 257.201 330.656 256.029 331.755C255.715 332.053 255.474 332.177 255.033 331.976C253.995 331.506 252.877 331.296 251.742 331.24C248.698 331.102 245.981 332.082 243.446 333.667C240.7 335.39 238.486 337.693 236.425 340.159C235.547 341.203 235.889 342.368 237.195 342.807C238.019 343.075 238.844 343.338 239.668 343.607C241.643 344.244 243.614 344.875 245.584 345.511C245.579 345.572 245.585 345.603 245.576 345.634C245.56 345.672 245.543 345.716 245.516 345.754C244.694 346.806 244.893 347.78 245.759 348.695C245.852 348.796 245.933 348.917 246.015 349.027C246.468 349.621 246.932 350.222 247.413 350.84C246.756 351.345 246.111 351.774 245.541 352.293C245.253 352.554 244.999 352.933 244.89 353.309C244.705 353.916 245.02 354.536 245.562 354.854C246.137 355.199 246.729 355.184 247.264 354.8C247.943 354.319 248.592 353.797 249.283 353.272C249.935 354.128 250.553 354.938 251.173 355.738C251.884 356.649 252.374 356.805 253.476 356.501C253.677 356.439 253.875 356.396 254.112 356.338C254.128 356.573 254.146 356.762 254.156 356.938C254.297 359.775 254.426 362.617 254.583 365.446C254.654 366.788 255.718 367.421 256.934 366.846C258.033 366.33 259.131 365.784 260.208 365.202C262.69 363.857 264.949 362.21 266.751 360.02C269.006 357.264 270.255 354.187 269.671 350.55C269.646 350.407 269.766 350.162 269.891 350.088C270.997 349.378 272.134 348.713 273.241 347.997C275.745 346.371 277.758 344.259 279.332 341.736C281.47 338.306 282.651 334.543 283.105 330.547ZM247.213 342.824C244.933 342.084 242.569 341.316 240.14 340.529C242.649 337.873 245.305 335.553 248.881 334.574C250.427 334.15 252.213 334.186 253.267 334.613C251.265 337.335 249.258 340.057 247.213 342.824ZM266.394 354.499C265.814 356.341 264.707 357.84 263.344 359.178C261.65 360.821 259.678 362.047 257.547 363.166C257.419 360.557 257.287 358.004 257.158 355.505C260.381 354.256 263.534 353.037 266.702 351.811C266.824 352.68 266.675 353.602 266.394 354.499ZM278.298 337.031C277.26 339.47 275.899 341.69 273.958 343.529C272.46 344.939 270.761 346.071 268.972 347.077C264.121 349.805 258.922 351.685 253.606 353.275C253.347 353.35 253.188 353.336 253.017 353.099C252.646 352.574 252.23 352.068 251.837 351.55C251.811 351.52 251.802 351.472 251.765 351.379C251.901 351.271 252.046 351.163 252.192 351.052C255.226 348.732 258.274 346.42 261.308 344.096C262.184 343.433 262.223 342.293 261.411 341.636C260.844 341.174 260.097 341.181 259.443 341.671C257.617 343.058 255.796 344.445 253.975 345.837C252.616 346.872 251.269 347.902 249.859 348.979C249.374 348.349 248.907 347.774 248.485 347.169C248.414 347.06 248.487 346.787 248.584 346.653C250.201 344.249 251.804 341.833 253.487 339.472C255.152 337.127 257.044 334.961 259.126 332.973C261.078 331.095 263.194 329.437 265.751 328.449C267.39 327.813 269.082 327.38 270.83 327.194C270.988 327.172 271.218 327.33 271.331 327.475C273.108 329.764 274.863 332.055 276.624 334.351C277.152 335.034 277.674 335.731 278.218 336.407C278.381 336.61 278.402 336.784 278.298 337.031ZM279.351 333.831C277.596 331.54 275.881 329.312 274.164 327.073C274.167 327.022 274.181 326.963 274.189 326.907C276.188 327.146 278.192 327.39 280.216 327.631C280.179 329.803 279.857 331.792 279.351 333.831Z" fill="#317F8B"/>
<path d="M278.221 336.405C277.676 335.73 277.156 335.033 276.627 334.35C274.867 332.054 273.111 329.762 271.334 327.474C271.222 327.329 270.992 327.17 270.833 327.193C269.085 327.379 267.394 327.812 265.754 328.448C263.196 329.436 261.081 331.094 259.129 332.972C257.048 334.96 255.155 337.126 253.49 339.471C251.808 341.833 250.204 344.249 248.587 346.651C248.49 346.786 248.417 347.059 248.489 347.167C248.909 347.773 249.377 348.348 249.862 348.978C251.273 347.9 252.62 346.869 253.978 345.836C255.799 344.443 257.62 343.055 259.446 341.67C260.1 341.179 260.846 341.174 261.414 341.635C262.226 342.293 262.189 343.433 261.311 344.094C258.277 346.419 255.229 348.731 252.196 351.05C252.049 351.162 251.903 351.269 251.768 351.378C251.805 351.472 251.815 351.519 251.841 351.548C252.233 352.067 252.649 352.573 253.02 353.098C253.191 353.335 253.35 353.349 253.61 353.274C258.925 351.684 264.124 349.804 268.975 347.076C270.764 346.071 272.463 344.938 273.961 343.527C275.901 341.689 277.263 339.468 278.301 337.03C278.403 336.784 278.382 336.61 278.221 336.405ZM272.898 339.902C270.579 341.642 267.297 341.217 265.555 338.939C263.802 336.664 264.245 333.398 266.542 331.634C268.797 329.904 272.08 330.351 273.839 332.627C275.577 334.889 275.153 338.203 272.898 339.902Z" fill="white"/>
<path d="M279.351 333.829C277.594 331.542 275.88 329.312 274.164 327.073C274.17 327.02 274.181 326.965 274.189 326.907C276.188 327.148 278.193 327.391 280.219 327.632C280.181 329.801 279.855 331.792 279.351 333.829Z" fill="#DB2C2C"/>
<path d="M253.267 334.614C251.263 337.333 249.256 340.057 247.213 342.826C244.93 342.082 242.565 341.316 240.138 340.53C242.649 337.87 245.304 335.551 248.88 334.574C250.426 334.149 252.209 334.186 253.267 334.614Z" fill="#DB2C2C"/>
<path d="M263.342 359.178C261.649 360.822 259.679 362.05 257.545 363.166C257.416 360.559 257.285 358.006 257.157 355.505C260.381 354.257 263.532 353.039 266.705 351.809C266.826 352.681 266.673 353.601 266.395 354.501C265.816 356.343 264.709 357.842 263.342 359.178Z" fill="#DB2C2C"/>
<path d="M273.837 332.627C272.08 330.351 268.796 329.905 266.541 331.634C264.243 333.399 263.801 336.664 265.554 338.939C267.296 341.217 270.577 341.643 272.896 339.902C275.153 338.204 275.577 334.889 273.837 332.627ZM271.334 337.981C270.159 338.868 268.433 338.634 267.518 337.465C266.571 336.26 266.83 334.489 268.083 333.563C269.256 332.686 271.015 332.941 271.898 334.115C272.821 335.337 272.567 337.053 271.334 337.981Z" fill="#317F8B"/>
<path d="M271.331 337.981C270.156 338.868 268.431 338.634 267.513 337.463C266.571 336.26 266.826 334.489 268.079 333.563C269.255 332.689 271.011 332.939 271.895 334.113C272.818 335.336 272.567 337.054 271.331 337.981Z" fill="#22A7F0"/>
<path d="M349.011 302.91C349.011 302.91 337.873 297.646 327.414 302.368C317.398 306.89 310.312 339.085 323.289 347.24C331.298 352.274 336.75 347.827 341.281 349.133C348.002 351.069 361.79 317.92 349.011 302.91Z" fill="white"/>
<g opacity="0.35">
<path d="M354.036 323.861C352.716 337.356 345.564 350.366 341.283 349.133C336.75 347.828 331.299 352.276 323.29 347.242C317.091 343.344 315.471 333.965 316.565 324.729C317.302 330.117 319.39 334.734 323.29 337.185C331.299 342.213 336.632 339.876 341.283 339.076C347.033 338.084 351.721 331.828 354.036 323.861Z" fill="#317F8B"/>
</g>
<path d="M331.502 351.756C328.799 351.756 325.672 351.168 322.188 348.978C319.068 347.017 316.815 343.845 315.492 339.549C314.38 335.944 313.965 331.55 314.29 326.844C314.674 321.27 316.051 315.552 318.163 310.743C319.778 307.069 322.546 302.309 326.561 300.496C337.763 295.439 349.404 300.822 349.894 301.053L350.295 301.243L350.582 301.581C356.431 308.45 356.769 317.94 356.022 324.69C355.18 332.297 352.485 340.365 348.987 345.748C345.483 351.138 342.549 351.638 340.706 351.107C339.509 350.762 337.998 351.003 336.247 351.282C334.864 351.503 333.274 351.756 331.502 351.756ZM336.948 302.45C333.813 302.45 330.906 303.048 328.267 304.24C326.095 305.221 323.79 308.192 321.945 312.392C320.044 316.716 318.755 322.086 318.407 327.128C317.792 336.029 319.973 342.728 324.39 345.504C328.843 348.303 332.277 347.755 335.597 347.225C337.744 346.883 339.771 346.56 341.854 347.16C342.094 347.201 343.81 346.542 346.231 342.364C351.877 332.623 355.458 314.226 347.734 304.596C346.858 304.234 344.605 303.381 341.657 302.87C340.037 302.59 338.465 302.45 336.948 302.45Z" fill="#317F8B"/>
</svg>
